<?xml version="1.0" standalone="no"?>
<!DOCTYPE svg PUBLIC "-//W3C//DTD SVG 20010904//EN"
 "https://www.w3.org/TR/2001/REC-SVG-20010904/DTD/svg10.dtd">
<svg version="1.0" xmlns="https://www.w3.org/2000/svg"
 width="260.000000pt" height="260.000000pt" viewBox="0 0 260.000000 260.000000"
 preserveAspectRatio="xMidYMid meet">
<metadata>
Created by potrace 1.11, written by Peter Selinger 2001-2013
</metadata>
<g transform="translate(0.000000,260.000000) scale(0.100000,-0.100000)"
fill="#000000" stroke="none">
<path d="M1100 1963 l1 -348 -238 -6 c-204 -5 -249 -9 -311 -28 -228 -67 -390
-232 -449 -454 -20 -76 -22 -251 -4 -327 43 -179 171 -341 331 -418 144 -70
166 -72 630 -72 l411 -1 -1 471 c0 259 -1 474 -1 478 -1 4 -1 12 0 17 1 6 1
162 1 348 l0 337 301 0 302 0 43 -25 c92 -54 113 -195 41 -274 -51 -55 -82
-61 -339 -61 l-238 0 0 -160 0 -160 258 0 c225 0 269 3 336 20 245 62 386 243
386 492 0 154 -37 252 -133 355 -42 45 -80 73 -131 98 -125 62 -155 65 -704
65 l-492 0 0 -347z m2 -773 l0 -85 -191 -3 -191 -2 0 -140 0 -140 210 0 210 0
0 -91 0 -90 -237 3 c-224 3 -241 4 -289 26 -64 29 -126 92 -156 157 -33 75
-32 191 3 265 35 74 67 111 128 143 72 40 113 45 324 44 l189 -2 0 -85z"/>
</g>
</svg>
