<?xml version="1.0" standalone="no"?>
<!DOCTYPE svg PUBLIC "-//W3C//DTD SVG 20010904//EN"
 "http://www.w3.org/TR/2001/REC-SVG-20010904/DTD/svg10.dtd">
<svg version="1.0" xmlns="http://www.w3.org/2000/svg"
 width="260.000000pt" height="260.000000pt" viewBox="0 0 260.000000 260.000000"
 preserveAspectRatio="xMidYMid meet">
<metadata>
Created by potrace 1.11, written by Peter Selinger 2001-2013
</metadata>
<g transform="translate(0.000000,260.000000) scale(0.100000,-0.100000)"
fill="#000000" stroke="none">
<path d="M1237 2543 c-4 -3 -22 -7 -39 -8 -34 -2 -120 -14 -150 -21 -10 -2
-28 -6 -39 -9 -12 -2 -38 -10 -58 -17 -20 -7 -38 -13 -41 -13 -27 -5 -101 -36
-174 -73 -359 -184 -612 -540 -662 -932 -4 -25 -7 -49 -8 -55 0 -5 -5 -13 -11
-17 -6 -5 -5 -8 3 -8 10 0 10 -5 1 -21 -8 -16 -8 -20 1 -14 9 6 9 3 1 -13 -14
-27 -14 -35 1 -26 7 5 8 3 3 -6 -12 -19 -13 -80 -2 -80 5 0 5 -6 -2 -13 -6 -8
-7 -17 -2 -23 5 -5 12 -34 15 -64 6 -64 38 -192 66 -267 106 -283 333 -535
605 -670 127 -64 267 -107 382 -119 32 -4 64 -11 71 -16 8 -7 12 -7 12 1 0 6
5 11 11 11 5 0 8 -3 6 -7 -3 -5 6 -9 19 -9 13 -1 22 1 19 5 -5 10 26 7 42 -2
7 -5 22 -3 34 4 15 8 19 8 15 0 -4 -6 -3 -11 3 -11 5 0 13 5 17 11 4 8 9 7 15
-2 5 -8 9 -9 9 -4 0 6 15 12 33 13 106 7 290 61 412 120 201 98 405 282 507
457 16 28 33 57 38 65 50 78 122 294 136 402 7 64 9 72 17 86 5 7 3 12 -3 12
-6 0 -8 5 -4 11 11 18 11 149 -1 149 -5 0 -3 5 5 10 10 6 11 10 3 10 -7 0 -13
5 -13 11 0 5 6 7 13 3 9 -6 9 -4 1 7 -7 8 -14 37 -17 64 -48 405 -347 796
-737 963 -107 46 -284 92 -351 92 -18 0 -28 4 -24 10 8 13 -17 9 -27 -4 -4 -6
-12 -5 -21 3 -10 8 -17 8 -21 2 -4 -6 -15 -7 -30 -1 -12 4 -29 4 -36 0 -8 -5
-19 -5 -26 0 -6 6 -14 7 -17 3z"/>
</g>
</svg>
